# xmcd
#
# Track frame offsets: 
#        182
#        13180
#        26952
#        39835
#        54725
#        67210
#        81887
#        95685
#        107717
#        121605
#        132530
#        144635
#
# Disc length: 2193 seconds
#
# Revision: 2
# Processed by: cddbd v1.5.2PL0 Copyright (c) Steve Scherf et al.
# Submitted via: ExactAudioCopyFreeDBPlugin 1.0
#
DISCID=ad088f0c
DTITLE=Willie Dixon - Little Red Rooster
DYEAR=1900
DGENRE=Blues
TTITLE0=I Just Want To Make Love To You (voc-M Waters)
TTITLE1=Black Angel Blues (voc-R Nightawk)
TTITLE2=When The Lights Go Out (voc-J Witherspoon)
TTITLE3=Pain In My Heart (voc-W Dixon)
TTITLE4=(I'm Your) Hoochie Coochie Man (voc-M Waters)
TTITLE5=Third Degree (voc-E Boyd)
TTITLE6=Walkin' The Blues (voc-W Dixon)
TTITLE7=You Know My Love (voc-O Rush)
TTITLE8=Tollin' Bells (voc-L Fulson)
TTITLE9=Little Red Rooster (voc-H Wolf)
TTITLE10=Mellow Down Easy (voc-L Walter)
TTITLE11=Weak Brain, Narrow Mind (voc-W Dixon)
EXTD=Blues Collection #60 ID3G: 0
EXTT0=Muddy Waters
EXTT1=Robert Nighthawk
EXTT2=Jimmy Witherspoon
EXTT3=Willie Dixon
EXTT4=Muddy Waters
EXTT5=Eddie Boyd
EXTT6=Willie Dixon
EXTT7=Otis Rush
EXTT8=Lowell Fulson
EXTT9=Howlin' Wolf
EXTT10=Little Walter
EXTT11=Willie Dixon
PLAYORDER=
